<mxfile host="app.diagrams.net" agent="Mozilla/5.0 (Windows NT 10.0; Win64; x64) AppleWebKit/537.36 (KHTML, like Gecko) Chrome/139.0.0.0 Safari/537.36" version="28.1.1">
  <diagram id="4sxThrcS1GXPEqfy17P8" name="Page-1">
    <mxGraphModel dx="872" dy="1531" grid="1" gridSize="10" guides="1" tooltips="1" connect="1" arrows="1" fold="1" page="1" pageScale="1" pageWidth="850" pageHeight="1100" math="0" shadow="0">
      <root>
        <mxCell id="0" />
        <mxCell id="1" parent="0" />
        <mxCell id="5cEK24qAZK9ujdfZ6Y9_-2" value="" style="rounded=0;whiteSpace=wrap;html=1;fillColor=#d5e8d4;gradientColor=#97d077;strokeColor=#82b366;" parent="1" vertex="1">
          <mxGeometry x="80" y="80" width="500" height="230" as="geometry" />
        </mxCell>
        <mxCell id="5cEK24qAZK9ujdfZ6Y9_-3" value="&lt;b&gt;Project-1&lt;/b&gt;" style="rounded=0;whiteSpace=wrap;html=1;fillColor=#dae8fc;gradientColor=#7ea6e0;strokeColor=#6c8ebf;" parent="1" vertex="1">
          <mxGeometry x="90" y="230" width="120" height="60" as="geometry" />
        </mxCell>
        <mxCell id="5cEK24qAZK9ujdfZ6Y9_-4" value="&lt;b&gt;Jenkins Shared Library&lt;/b&gt;" style="ellipse;whiteSpace=wrap;html=1;fillColor=#e6d0de;gradientColor=#d5739d;strokeColor=#996185;" parent="1" vertex="1">
          <mxGeometry x="340" y="90" width="120" height="80" as="geometry" />
        </mxCell>
        <mxCell id="5cEK24qAZK9ujdfZ6Y9_-7" style="edgeStyle=orthogonalEdgeStyle;rounded=0;orthogonalLoop=1;jettySize=auto;html=1;entryX=0.5;entryY=0;entryDx=0;entryDy=0;" parent="1" source="5cEK24qAZK9ujdfZ6Y9_-6" target="5cEK24qAZK9ujdfZ6Y9_-4" edge="1">
          <mxGeometry relative="1" as="geometry" />
        </mxCell>
        <mxCell id="5cEK24qAZK9ujdfZ6Y9_-6" value="" style="verticalLabelPosition=bottom;html=1;verticalAlign=top;align=center;strokeColor=none;fillColor=#00BEF2;shape=mxgraph.azure.github_code;pointerEvents=1;" parent="1" vertex="1">
          <mxGeometry x="365" y="-90" width="70" height="60" as="geometry" />
        </mxCell>
        <mxCell id="Iex4VXXXI1FBAdNREj_--1" value="&lt;b&gt;Jenkins&lt;/b&gt;" style="text;html=1;align=center;verticalAlign=middle;resizable=0;points=[];autosize=1;strokeColor=none;fillColor=none;" parent="1" vertex="1">
          <mxGeometry x="80" y="80" width="70" height="30" as="geometry" />
        </mxCell>
        <mxCell id="Iex4VXXXI1FBAdNREj_--2" style="edgeStyle=orthogonalEdgeStyle;rounded=0;orthogonalLoop=1;jettySize=auto;html=1;entryX=0.008;entryY=0.4;entryDx=0;entryDy=0;entryPerimeter=0;" parent="1" source="5cEK24qAZK9ujdfZ6Y9_-3" target="5cEK24qAZK9ujdfZ6Y9_-4" edge="1">
          <mxGeometry relative="1" as="geometry">
            <Array as="points">
              <mxPoint x="130" y="122" />
            </Array>
          </mxGeometry>
        </mxCell>
        <mxCell id="Iex4VXXXI1FBAdNREj_--4" style="edgeStyle=orthogonalEdgeStyle;rounded=0;orthogonalLoop=1;jettySize=auto;html=1;" parent="1" source="Iex4VXXXI1FBAdNREj_--3" edge="1">
          <mxGeometry relative="1" as="geometry">
            <mxPoint x="340" y="120" as="targetPoint" />
            <Array as="points">
              <mxPoint x="305" y="170" />
              <mxPoint x="341" y="170" />
            </Array>
          </mxGeometry>
        </mxCell>
        <mxCell id="Iex4VXXXI1FBAdNREj_--3" value="&lt;b&gt;Project-2&lt;/b&gt;" style="rounded=0;whiteSpace=wrap;html=1;fillColor=#dae8fc;gradientColor=#7ea6e0;strokeColor=#6c8ebf;" parent="1" vertex="1">
          <mxGeometry x="245" y="230" width="120" height="60" as="geometry" />
        </mxCell>
        <mxCell id="Iex4VXXXI1FBAdNREj_--6" style="edgeStyle=orthogonalEdgeStyle;rounded=0;orthogonalLoop=1;jettySize=auto;html=1;entryX=1;entryY=0.5;entryDx=0;entryDy=0;" parent="1" source="Iex4VXXXI1FBAdNREj_--5" target="5cEK24qAZK9ujdfZ6Y9_-4" edge="1">
          <mxGeometry relative="1" as="geometry" />
        </mxCell>
        <mxCell id="Iex4VXXXI1FBAdNREj_--5" value="&lt;b&gt;Project-2&lt;/b&gt;" style="rounded=0;whiteSpace=wrap;html=1;fillColor=#dae8fc;gradientColor=#7ea6e0;strokeColor=#6c8ebf;" parent="1" vertex="1">
          <mxGeometry x="420" y="230" width="120" height="60" as="geometry" />
        </mxCell>
        <mxCell id="Iex4VXXXI1FBAdNREj_--7" value="&lt;ul&gt;&lt;li&gt;&lt;b&gt;we enforce best practices here&lt;/b&gt;&lt;/li&gt;&lt;li&gt;&lt;b&gt;centralised pipelines&lt;/b&gt;&lt;/li&gt;&lt;/ul&gt;" style="text;html=1;align=left;verticalAlign=middle;resizable=0;points=[];autosize=1;strokeColor=none;fillColor=none;" parent="1" vertex="1">
          <mxGeometry x="380" y="-40" width="240" height="70" as="geometry" />
        </mxCell>
        <mxCell id="Iex4VXXXI1FBAdNREj_--8" value="&lt;b&gt;Jenkinsfile&lt;/b&gt;" style="text;html=1;align=center;verticalAlign=middle;resizable=0;points=[];autosize=1;strokeColor=none;fillColor=none;" parent="1" vertex="1">
          <mxGeometry x="120" y="200" width="90" height="30" as="geometry" />
        </mxCell>
      </root>
    </mxGraphModel>
  </diagram>
</mxfile>
